# xmcd
#
# Track frame offsets:
#	150
#	19405
#	36112
#	55097
#	74124
#	93941
#	107869
#	128426
#	146128
#	164050
#	182892
#	198992
#	217857
#	234044
#	251081
#
# Disc length: 3563 seconds
#
# Revision: 1
# Processed by: cddbd v1.5.1PL0 Copyright (c) Steve Scherf et al.
# Submitted via: audiograbber 1.83.01
#
DISCID=d90de90f
DTITLE=Sound Choice - Sc8051
DYEAR=2000
DGENRE=Country
TTITLE0=Kinleys, The - Somebody's Out There Watching
TTITLE1=Diffie, Joe - A Night To Remember
TTITLE2=Wills, Mark - Wish You Were Here
TTITLE3=Jackson, Alan - Gone Crazy
TTITLE4=Hill, Faith - Breathe
TTITLE5=Mcbride, Martina - I Love You
TTITLE6=Yearwood, Trisha - I'll Still Love You More
TTITLE7=Twain, Shania - That Don't Impress Me Much
TTITLE8=Herndon, Ty - Hands Of A Working Man
TTITLE9=Brock, Chad - Ordinary Life
TTITLE10=Messina, Jo Dee - Bye Bye
TTITLE11=Raye, Collin - Anyone Else
TTITLE12=Gentry, Montgomery - Lonely And Gone
TTITLE13=Clark, Terri - You're Easy On The Eyes
TTITLE14=Womack, Lee Ann - I'll Think Of A Reason Later
EXTD=
EXTT0=
EXTT1=
EXTT2=
EXTT3=
EXTT4=
EXTT5=
EXTT6=
EXTT7=
EXTT8=
EXTT9=
EXTT10=
EXTT11=
EXTT12=
EXTT13=
EXTT14=
PLAYORDER=
